<?xml version="1.0" encoding="UTF-8" standalone="no"?>
<!DOCTYPE svg PUBLIC "-//W3C//DTD SVG 1.1//EN"
 "http://www.w3.org/Graphics/SVG/1.1/DTD/svg11.dtd">
<!-- Generated by graphviz version 14.1.3 (20260303.0454)
 -->
<!-- Title: Architecture Pages: 1 -->
<svg width="1638pt" height="714pt"
 viewBox="0.00 0.00 1638.00 714.00" xmlns="http://www.w3.org/2000/svg" xmlns:xlink="http://www.w3.org/1999/xlink">
<g id="graph0" class="graph" transform="scale(1 1) rotate(0) translate(36 677.65)">
<title>Architecture</title>
<polygon fill="#ffffff" stroke="none" points="-36,36 -36,-677.65 1602,-677.65 1602,36 -36,36"/>
<text xml:space="preserve" text-anchor="middle" x="783" y="-624.35" font-family="Microsoft YaHei" font-size="14.00">F413 嵌入式软件架构图</text>
<g id="clust1" class="cluster">
<title>cluster_app</title>
<polygon fill="#e3f2fd" stroke="#0072b2" stroke-width="2" stroke-dasharray="5,2" points="94,-513.75 94,-606.9 956,-606.9 956,-513.75 94,-513.75"/>
<text xml:space="preserve" text-anchor="middle" x="525" y="-589.6" font-family="Microsoft YaHei" font-size="14.00">应用层 (Application)</text>
</g>
<g id="clust2" class="cluster">
<title>cluster_mw</title>
<polygon fill="#e8f5e9" stroke="#009e73" stroke-width="2" stroke-dasharray="5,2" points="8,-412.6 8,-505.75 1042,-505.75 1042,-412.6 8,-412.6"/>
<text xml:space="preserve" text-anchor="middle" x="525" y="-488.45" font-family="Microsoft YaHei" font-size="14.00">中间件 (Middleware)</text>
</g>
<g id="clust3" class="cluster">
<title>cluster_drv</title>
<polygon fill="#fff3e0" stroke="#d55e00" stroke-width="2" stroke-dasharray="5,2" points="180,-311.45 180,-404.6 1214,-404.6 1214,-311.45 180,-311.45"/>
<text xml:space="preserve" text-anchor="middle" x="697" y="-387.3" font-family="Microsoft YaHei" font-size="14.00">驱动层 (Driver)</text>
</g>
<g id="clust4" class="cluster">
<title>cluster_hal</title>
<polygon fill="#fce4ec" stroke="#cc79a7" stroke-width="2" stroke-dasharray="5,2" points="266,-210.3 266,-303.45 1300,-303.45 1300,-210.3 266,-210.3"/>
<text xml:space="preserve" text-anchor="middle" x="783" y="-286.15" font-family="Microsoft YaHei" font-size="14.00">硬件抽象层 (HAL)</text>
</g>
<g id="clust5" class="cluster">
<title>cluster_hw</title>
<polygon fill="#eceff1" stroke="#000000" stroke-width="2" stroke-dasharray="5,2" points="352,-109.15 352,-202.3 1386,-202.3 1386,-109.15 352,-109.15"/>
<text xml:space="preserve" text-anchor="middle" x="869" y="-185" font-family="Microsoft YaHei" font-size="14.00">硬件层 (Hardware)</text>
</g>
<g id="clust6" class="cluster">
<title>cluster_peri</title>
<polygon fill="#f1f8e9" stroke="#e69f00" stroke-width="2" stroke-dasharray="5,2" points="352,-8 352,-101.15 1558,-101.15 1558,-8 352,-8"/>
<text xml:space="preserve" text-anchor="middle" x="955" y="-83.85" font-family="Microsoft YaHei" font-size="14.00">外部设备 (Peripherals)</text>
</g>
<!-- app_fill1 -->
<g id="node1" class="node">
<title>app_fill1</title>
</g>
<!-- app_parser -->
<g id="node2" class="node">
<title>app_parser</title>
<path fill="#bbdefb" stroke="#0072b2" stroke-width="1.2" d="M420.2,-572.15C420.2,-572.15 285.8,-572.15 285.8,-572.15 279.8,-572.15 273.8,-566.15 273.8,-560.15 273.8,-560.15 273.8,-533.75 273.8,-533.75 273.8,-527.75 279.8,-521.75 285.8,-521.75 285.8,-521.75 420.2,-521.75 420.2,-521.75 426.2,-521.75 432.2,-527.75 432.2,-533.75 432.2,-533.75 432.2,-560.15 432.2,-560.15 432.2,-566.15 426.2,-572.15 420.2,-572.15"/>
<text xml:space="preserve" text-anchor="middle" x="353" y="-551.7" font-family="Microsoft YaHei" font-size="10.00">userparser.c</text>
<text xml:space="preserve" text-anchor="middle" x="353" y="-537.45" font-family="Microsoft YaHei" font-size="10.00">系统初始化与任务创建</text>
</g>
<!-- mw_freertos -->
<g id="node8" class="node">
<title>mw_freertos</title>
<path fill="#c8e6c9" stroke="#009e73" stroke-width="1.2" d="M506.2,-471C506.2,-471 371.8,-471 371.8,-471 365.8,-471 359.8,-465 359.8,-459 359.8,-459 359.8,-432.6 359.8,-432.6 359.8,-426.6 365.8,-420.6 371.8,-420.6 371.8,-420.6 506.2,-420.6 506.2,-420.6 512.2,-420.6 518.2,-426.6 518.2,-432.6 518.2,-432.6 518.2,-459 518.2,-459 518.2,-465 512.2,-471 506.2,-471"/>
<text xml:space="preserve" text-anchor="middle" x="439" y="-450.55" font-family="Microsoft YaHei" font-size="10.00">FreeRTOS</text>
<text xml:space="preserve" text-anchor="middle" x="439" y="-436.3" font-family="Microsoft YaHei" font-size="10.00">任务管理与调度</text>
</g>
<!-- app_parser&#45;&gt;mw_freertos -->
<g id="edge1" class="edge">
<title>app_parser&#45;&gt;mw_freertos</title>
<path fill="none" stroke="#0072b2" stroke-width="1.2" stroke-dasharray="5,2" d="M374.48,-521.19C385.77,-508.17 399.72,-492.09 411.76,-478.21"/>
<polygon fill="#0072b2" stroke="#0072b2" stroke-width="1.2" points="413.57,-479.86 416.31,-472.96 409.87,-476.65 413.57,-479.86"/>
</g>
<!-- app_screen -->
<g id="node3" class="node">
<title>app_screen</title>
<path fill="#bbdefb" stroke="#0072b2" stroke-width="1.2" d="M764.2,-572.15C764.2,-572.15 629.8,-572.15 629.8,-572.15 623.8,-572.15 617.8,-566.15 617.8,-560.15 617.8,-560.15 617.8,-533.75 617.8,-533.75 617.8,-527.75 623.8,-521.75 629.8,-521.75 629.8,-521.75 764.2,-521.75 764.2,-521.75 770.2,-521.75 776.2,-527.75 776.2,-533.75 776.2,-533.75 776.2,-560.15 776.2,-560.15 776.2,-566.15 770.2,-572.15 764.2,-572.15"/>
<text xml:space="preserve" text-anchor="middle" x="697" y="-551.7" font-family="Microsoft YaHei" font-size="10.00">screen.c</text>
<text xml:space="preserve" text-anchor="middle" x="697" y="-537.45" font-family="Microsoft YaHei" font-size="10.00">UI显示与按键处理</text>
</g>
<!-- mw_apptask -->
<g id="node9" class="node">
<title>mw_apptask</title>
<path fill="#c8e6c9" stroke="#009e73" stroke-width="1.2" d="M678.2,-471C678.2,-471 543.8,-471 543.8,-471 537.8,-471 531.8,-465 531.8,-459 531.8,-459 531.8,-432.6 531.8,-432.6 531.8,-426.6 537.8,-420.6 543.8,-420.6 543.8,-420.6 678.2,-420.6 678.2,-420.6 684.2,-420.6 690.2,-426.6 690.2,-432.6 690.2,-432.6 690.2,-459 690.2,-459 690.2,-465 684.2,-471 678.2,-471"/>
<text xml:space="preserve" text-anchor="middle" x="611" y="-450.55" font-family="Microsoft YaHei" font-size="10.00">AppTask框架</text>
<text xml:space="preserve" text-anchor="middle" x="611" y="-436.3" font-family="Microsoft YaHei" font-size="10.00">定时任务链表</text>
</g>
<!-- app_screen&#45;&gt;mw_apptask -->
<g id="edge2" class="edge">
<title>app_screen&#45;&gt;mw_apptask</title>
<path fill="none" stroke="#0072b2" stroke-width="1.2" stroke-dasharray="5,2" d="M675.52,-521.19C664.23,-508.17 650.28,-492.09 638.24,-478.21"/>
<polygon fill="#0072b2" stroke="#0072b2" stroke-width="1.2" points="640.13,-476.65 633.69,-472.96 636.43,-479.86 640.13,-476.65"/>
</g>
<!-- app_task -->
<g id="node4" class="node">
<title>app_task</title>
<path fill="#bbdefb" stroke="#0072b2" stroke-width="1.2" d="M592.2,-572.15C592.2,-572.15 457.8,-572.15 457.8,-572.15 451.8,-572.15 445.8,-566.15 445.8,-560.15 445.8,-560.15 445.8,-533.75 445.8,-533.75 445.8,-527.75 451.8,-521.75 457.8,-521.75 457.8,-521.75 592.2,-521.75 592.2,-521.75 598.2,-521.75 604.2,-527.75 604.2,-533.75 604.2,-533.75 604.2,-560.15 604.2,-560.15 604.2,-566.15 598.2,-572.15 592.2,-572.15"/>
<text xml:space="preserve" text-anchor="middle" x="525" y="-551.7" font-family="Microsoft YaHei" font-size="10.00">app_task.c</text>
<text xml:space="preserve" text-anchor="middle" x="525" y="-537.45" font-family="Microsoft YaHei" font-size="10.00">定时任务调度框架</text>
</g>
<!-- app_task&#45;&gt;mw_freertos -->
<g id="edge3" class="edge">
<title>app_task&#45;&gt;mw_freertos</title>
<path fill="none" stroke="#0072b2" stroke-width="1.2" stroke-dasharray="5,2" d="M503.52,-521.19C492.23,-508.17 478.28,-492.09 466.24,-478.21"/>
<polygon fill="#0072b2" stroke="#0072b2" stroke-width="1.2" points="468.13,-476.65 461.69,-472.96 464.43,-479.86 468.13,-476.65"/>
</g>
<!-- app_task&#45;&gt;mw_apptask -->
<g id="edge4" class="edge">
<title>app_task&#45;&gt;mw_apptask</title>
<path fill="none" stroke="#0072b2" stroke-width="1.2" stroke-dasharray="5,2" d="M546.48,-521.19C557.77,-508.17 571.72,-492.09 583.76,-478.21"/>
<polygon fill="#0072b2" stroke="#0072b2" stroke-width="1.2" points="585.57,-479.86 588.31,-472.96 581.87,-476.65 585.57,-479.86"/>
</g>
<!-- app_fill2 -->
<g id="node5" class="node">
<title>app_fill2</title>
</g>
<!-- mw_fill1 -->
<g id="node6" class="node">
<title>mw_fill1</title>
</g>
<!-- mw_fill2 -->
<g id="node7" class="node">
<title>mw_fill2</title>
</g>
<!-- drv_uart -->
<g id="node12" class="node">
<title>drv_uart</title>
<path fill="#ffe0b2" stroke="#d55e00" stroke-width="1.2" d="M506.2,-369.85C506.2,-369.85 371.8,-369.85 371.8,-369.85 365.8,-369.85 359.8,-363.85 359.8,-357.85 359.8,-357.85 359.8,-331.45 359.8,-331.45 359.8,-325.45 365.8,-319.45 371.8,-319.45 371.8,-319.45 506.2,-319.45 506.2,-319.45 512.2,-319.45 518.2,-325.45 518.2,-331.45 518.2,-331.45 518.2,-357.85 518.2,-357.85 518.2,-363.85 512.2,-369.85 506.2,-369.85"/>
<text xml:space="preserve" text-anchor="middle" x="439" y="-349.4" font-family="Microsoft YaHei" font-size="10.00">UART1&#45;7</text>
<text xml:space="preserve" text-anchor="middle" x="439" y="-335.15" font-family="Microsoft YaHei" font-size="10.00">串口通信 (DMA)</text>
</g>
<!-- mw_freertos&#45;&gt;drv_uart -->
<g id="edge5" class="edge">
<title>mw_freertos&#45;&gt;drv_uart</title>
<path fill="none" stroke="#009e73" stroke-width="1.2" stroke-dasharray="5,2" d="M439,-420.04C439,-407.61 439,-392.39 439,-378.96"/>
<polygon fill="#009e73" stroke="#009e73" stroke-width="1.2" points="441.45,-379.26 439,-372.26 436.55,-379.26 441.45,-379.26"/>
</g>
<!-- drv_gpio -->
<g id="node13" class="node">
<title>drv_gpio</title>
<path fill="#ffe0b2" stroke="#d55e00" stroke-width="1.2" d="M678.2,-369.85C678.2,-369.85 543.8,-369.85 543.8,-369.85 537.8,-369.85 531.8,-363.85 531.8,-357.85 531.8,-357.85 531.8,-331.45 531.8,-331.45 531.8,-325.45 537.8,-319.45 543.8,-319.45 543.8,-319.45 678.2,-319.45 678.2,-319.45 684.2,-319.45 690.2,-325.45 690.2,-331.45 690.2,-331.45 690.2,-357.85 690.2,-357.85 690.2,-363.85 684.2,-369.85 678.2,-369.85"/>
<text xml:space="preserve" text-anchor="middle" x="611" y="-349.4" font-family="Microsoft YaHei" font-size="10.00">GPIO</text>
<text xml:space="preserve" text-anchor="middle" x="611" y="-335.15" font-family="Microsoft YaHei" font-size="10.00">输入输出控制</text>
</g>
<!-- mw_freertos&#45;&gt;drv_gpio -->
<g id="edge6" class="edge">
<title>mw_freertos&#45;&gt;drv_gpio</title>
<path fill="none" stroke="#009e73" stroke-width="1.2" stroke-dasharray="5,2" d="M495.19,-420.16C505.26,-415.28 515.56,-410 525,-404.6 540.39,-395.81 556.59,-385.11 570.73,-375.26"/>
<polygon fill="#009e73" stroke="#009e73" stroke-width="1.2" points="572.12,-377.28 576.44,-371.25 569.3,-373.27 572.12,-377.28"/>
</g>
<!-- drv_tim -->
<g id="node14" class="node">
<title>drv_tim</title>
<path fill="#ffe0b2" stroke="#d55e00" stroke-width="1.2" d="M334.2,-369.85C334.2,-369.85 199.8,-369.85 199.8,-369.85 193.8,-369.85 187.8,-363.85 187.8,-357.85 187.8,-357.85 187.8,-331.45 187.8,-331.45 187.8,-325.45 193.8,-319.45 199.8,-319.45 199.8,-319.45 334.2,-319.45 334.2,-319.45 340.2,-319.45 346.2,-325.45 346.2,-331.45 346.2,-331.45 346.2,-357.85 346.2,-357.85 346.2,-363.85 340.2,-369.85 334.2,-369.85"/>
<text xml:space="preserve" text-anchor="middle" x="267" y="-349.4" font-family="Microsoft YaHei" font-size="10.00">TIM7/10/14</text>
<text xml:space="preserve" text-anchor="middle" x="267" y="-335.15" font-family="Microsoft YaHei" font-size="10.00">定时器驱动</text>
</g>
<!-- mw_freertos&#45;&gt;drv_tim -->
<g id="edge7" class="edge">
<title>mw_freertos&#45;&gt;drv_tim</title>
<path fill="none" stroke="#009e73" stroke-width="1.2" stroke-dasharray="5,2" d="M382.81,-420.16C372.74,-415.28 362.44,-410 353,-404.6 337.61,-395.81 321.41,-385.11 307.27,-375.26"/>
<polygon fill="#009e73" stroke="#009e73" stroke-width="1.2" points="308.7,-373.27 301.56,-371.25 305.88,-377.28 308.7,-373.27"/>
</g>
<!-- mw_apptask&#45;&gt;drv_uart -->
<g id="edge8" class="edge">
<title>mw_apptask&#45;&gt;drv_uart</title>
<path fill="none" stroke="#009e73" stroke-width="1.2" stroke-dasharray="5,2" d="M554.81,-420.16C544.74,-415.28 534.44,-410 525,-404.6 509.61,-395.81 493.41,-385.11 479.27,-375.26"/>
<polygon fill="#009e73" stroke="#009e73" stroke-width="1.2" points="480.7,-373.27 473.56,-371.25 477.88,-377.28 480.7,-373.27"/>
</g>
<!-- mw_apptask&#45;&gt;drv_gpio -->
<g id="edge9" class="edge">
<title>mw_apptask&#45;&gt;drv_gpio</title>
<path fill="none" stroke="#009e73" stroke-width="1.2" stroke-dasharray="5,2" d="M611,-420.04C611,-407.61 611,-392.39 611,-378.96"/>
<polygon fill="#009e73" stroke="#009e73" stroke-width="1.2" points="613.45,-379.26 611,-372.26 608.55,-379.26 613.45,-379.26"/>
</g>
<!-- mw_fill3 -->
<g id="node10" class="node">
<title>mw_fill3</title>
</g>
<!-- mw_fill4 -->
<g id="node11" class="node">
<title>mw_fill4</title>
</g>
<!-- hal_board -->
<g id="node20" class="node">
<title>hal_board</title>
<path fill="#f8bbd9" stroke="#cc79a7" stroke-width="1.2" d="M764.2,-268.7C764.2,-268.7 629.8,-268.7 629.8,-268.7 623.8,-268.7 617.8,-262.7 617.8,-256.7 617.8,-256.7 617.8,-230.3 617.8,-230.3 617.8,-224.3 623.8,-218.3 629.8,-218.3 629.8,-218.3 764.2,-218.3 764.2,-218.3 770.2,-218.3 776.2,-224.3 776.2,-230.3 776.2,-230.3 776.2,-256.7 776.2,-256.7 776.2,-262.7 770.2,-268.7 764.2,-268.7"/>
<text xml:space="preserve" text-anchor="middle" x="697" y="-248.25" font-family="Microsoft YaHei" font-size="10.00">board.h/c</text>
<text xml:space="preserve" text-anchor="middle" x="697" y="-234" font-family="Microsoft YaHei" font-size="10.00">引脚与外设配置</text>
</g>
<!-- drv_uart&#45;&gt;hal_board -->
<g id="edge10" class="edge">
<title>drv_uart&#45;&gt;hal_board</title>
<path fill="none" stroke="#d55e00" stroke-width="1.2" stroke-dasharray="5,2" d="M498.99,-318.9C507.61,-316.02 516.45,-313.41 525,-311.45 562.42,-302.87 574.9,-316.5 611,-303.45 629.14,-296.89 647.08,-285.58 661.84,-274.61"/>
<polygon fill="#d55e00" stroke="#d55e00" stroke-width="1.2" points="663.31,-276.57 667.38,-270.37 660.33,-272.68 663.31,-276.57"/>
</g>
<!-- drv_gpio&#45;&gt;hal_board -->
<g id="edge11" class="edge">
<title>drv_gpio&#45;&gt;hal_board</title>
<path fill="none" stroke="#d55e00" stroke-width="1.2" stroke-dasharray="5,2" d="M632.48,-318.89C643.77,-305.87 657.72,-289.79 669.76,-275.91"/>
<polygon fill="#d55e00" stroke="#d55e00" stroke-width="1.2" points="671.57,-277.56 674.31,-270.66 667.87,-274.35 671.57,-277.56"/>
</g>
<!-- drv_tim&#45;&gt;hal_board -->
<g id="edge12" class="edge">
<title>drv_tim&#45;&gt;hal_board</title>
<path fill="none" stroke="#d55e00" stroke-width="1.2" stroke-dasharray="5,2" d="M325.48,-318.87C334.55,-315.87 343.93,-313.24 353,-311.45 409.28,-300.36 556.48,-321.27 611,-303.45 629.8,-297.3 648.22,-285.67 663.16,-274.34"/>
<polygon fill="#d55e00" stroke="#d55e00" stroke-width="1.2" points="664.32,-276.54 668.33,-270.3 661.31,-272.68 664.32,-276.54"/>
</g>
<!-- drv_adc -->
<g id="node15" class="node">
<title>drv_adc</title>
<path fill="#ffe0b2" stroke="#d55e00" stroke-width="1.2" d="M850.2,-369.85C850.2,-369.85 715.8,-369.85 715.8,-369.85 709.8,-369.85 703.8,-363.85 703.8,-357.85 703.8,-357.85 703.8,-331.45 703.8,-331.45 703.8,-325.45 709.8,-319.45 715.8,-319.45 715.8,-319.45 850.2,-319.45 850.2,-319.45 856.2,-319.45 862.2,-325.45 862.2,-331.45 862.2,-331.45 862.2,-357.85 862.2,-357.85 862.2,-363.85 856.2,-369.85 850.2,-369.85"/>
<text xml:space="preserve" text-anchor="middle" x="783" y="-349.4" font-family="Microsoft YaHei" font-size="10.00">ADC</text>
<text xml:space="preserve" text-anchor="middle" x="783" y="-335.15" font-family="Microsoft YaHei" font-size="10.00">模拟信号采集</text>
</g>
<!-- drv_adc&#45;&gt;hal_board -->
<g id="edge13" class="edge">
<title>drv_adc&#45;&gt;hal_board</title>
<path fill="none" stroke="#d55e00" stroke-width="1.2" stroke-dasharray="5,2" d="M761.52,-318.89C750.23,-305.87 736.28,-289.79 724.24,-275.91"/>
<polygon fill="#d55e00" stroke="#d55e00" stroke-width="1.2" points="726.13,-274.35 719.69,-270.66 722.43,-277.56 726.13,-274.35"/>
</g>
<!-- drv_i2c -->
<g id="node16" class="node">
<title>drv_i2c</title>
<path fill="#ffe0b2" stroke="#d55e00" stroke-width="1.2" d="M1022.2,-369.85C1022.2,-369.85 887.8,-369.85 887.8,-369.85 881.8,-369.85 875.8,-363.85 875.8,-357.85 875.8,-357.85 875.8,-331.45 875.8,-331.45 875.8,-325.45 881.8,-319.45 887.8,-319.45 887.8,-319.45 1022.2,-319.45 1022.2,-319.45 1028.2,-319.45 1034.2,-325.45 1034.2,-331.45 1034.2,-331.45 1034.2,-357.85 1034.2,-357.85 1034.2,-363.85 1028.2,-369.85 1022.2,-369.85"/>
<text xml:space="preserve" text-anchor="middle" x="955" y="-349.4" font-family="Microsoft YaHei" font-size="10.00">Software I2C</text>
<text xml:space="preserve" text-anchor="middle" x="955" y="-335.15" font-family="Microsoft YaHei" font-size="10.00">EEPROM存储</text>
</g>
<!-- drv_i2c&#45;&gt;hal_board -->
<g id="edge14" class="edge">
<title>drv_i2c&#45;&gt;hal_board</title>
<path fill="none" stroke="#d55e00" stroke-width="1.2" stroke-dasharray="5,2" d="M895.01,-318.9C886.39,-316.02 877.55,-313.41 869,-311.45 831.58,-302.87 819.1,-316.5 783,-303.45 764.86,-296.89 746.92,-285.58 732.16,-274.61"/>
<polygon fill="#d55e00" stroke="#d55e00" stroke-width="1.2" points="733.67,-272.68 726.62,-270.37 730.69,-276.57 733.67,-272.68"/>
</g>
<!-- drv_1wire -->
<g id="node17" class="node">
<title>drv_1wire</title>
<path fill="#ffe0b2" stroke="#d55e00" stroke-width="1.2" d="M1194.2,-369.85C1194.2,-369.85 1059.8,-369.85 1059.8,-369.85 1053.8,-369.85 1047.8,-363.85 1047.8,-357.85 1047.8,-357.85 1047.8,-331.45 1047.8,-331.45 1047.8,-325.45 1053.8,-319.45 1059.8,-319.45 1059.8,-319.45 1194.2,-319.45 1194.2,-319.45 1200.2,-319.45 1206.2,-325.45 1206.2,-331.45 1206.2,-331.45 1206.2,-357.85 1206.2,-357.85 1206.2,-363.85 1200.2,-369.85 1194.2,-369.85"/>
<text xml:space="preserve" text-anchor="middle" x="1127" y="-349.4" font-family="Microsoft YaHei" font-size="10.00">1&#45;Wire</text>
<text xml:space="preserve" text-anchor="middle" x="1127" y="-335.15" font-family="Microsoft YaHei" font-size="10.00">RFID/DS2401</text>
</g>
<!-- drv_1wire&#45;&gt;hal_board -->
<g id="edge15" class="edge">
<title>drv_1wire&#45;&gt;hal_board</title>
<path fill="none" stroke="#d55e00" stroke-width="1.2" stroke-dasharray="5,2" d="M1068.52,-318.87C1059.45,-315.87 1050.07,-313.24 1041,-311.45 984.72,-300.36 837.52,-321.27 783,-303.45 764.2,-297.3 745.78,-285.67 730.84,-274.34"/>
<polygon fill="#d55e00" stroke="#d55e00" stroke-width="1.2" points="732.69,-272.68 725.67,-270.3 729.68,-276.54 732.69,-272.68"/>
</g>
<!-- hal_fill1 -->
<g id="node18" class="node">
<title>hal_fill1</title>
</g>
<!-- hal_fill2 -->
<g id="node19" class="node">
<title>hal_fill2</title>
</g>
<!-- hal_stm32 -->
<g id="node21" class="node">
<title>hal_stm32</title>
<path fill="#f8bbd9" stroke="#cc79a7" stroke-width="1.2" d="M936.2,-268.7C936.2,-268.7 801.8,-268.7 801.8,-268.7 795.8,-268.7 789.8,-262.7 789.8,-256.7 789.8,-256.7 789.8,-230.3 789.8,-230.3 789.8,-224.3 795.8,-218.3 801.8,-218.3 801.8,-218.3 936.2,-218.3 936.2,-218.3 942.2,-218.3 948.2,-224.3 948.2,-230.3 948.2,-230.3 948.2,-256.7 948.2,-256.7 948.2,-262.7 942.2,-268.7 936.2,-268.7"/>
<text xml:space="preserve" text-anchor="middle" x="869" y="-248.25" font-family="Microsoft YaHei" font-size="10.00">STM32F4xx HAL</text>
<text xml:space="preserve" text-anchor="middle" x="869" y="-234" font-family="Microsoft YaHei" font-size="10.00">外设驱动库</text>
</g>
<!-- hal_board&#45;&gt;hal_stm32 -->
<g id="edge16" class="edge">
<title>hal_board&#45;&gt;hal_stm32</title>
<path fill="none" stroke="#cc79a7" stroke-width="1.2" stroke-dasharray="5,2" d="M776.62,-243.5C777.93,-243.5 779.25,-243.5 780.56,-243.5"/>
<polygon fill="#cc79a7" stroke="#cc79a7" stroke-width="1.2" points="780.43,-245.95 787.43,-243.5 780.43,-241.05 780.43,-245.95"/>
</g>
<!-- hw_mcu -->
<g id="node25" class="node">
<title>hw_mcu</title>
<path fill="#cfd8dc" stroke="#000000" stroke-width="1.2" d="M1022.2,-167.55C1022.2,-167.55 887.8,-167.55 887.8,-167.55 881.8,-167.55 875.8,-161.55 875.8,-155.55 875.8,-155.55 875.8,-129.15 875.8,-129.15 875.8,-123.15 881.8,-117.15 887.8,-117.15 887.8,-117.15 1022.2,-117.15 1022.2,-117.15 1028.2,-117.15 1034.2,-123.15 1034.2,-129.15 1034.2,-129.15 1034.2,-155.55 1034.2,-155.55 1034.2,-161.55 1028.2,-167.55 1022.2,-167.55"/>
<text xml:space="preserve" text-anchor="middle" x="955" y="-147.1" font-family="Microsoft YaHei" font-size="10.00">STM32F4xx</text>
<text xml:space="preserve" text-anchor="middle" x="955" y="-132.85" font-family="Microsoft YaHei" font-size="10.00">Cortex&#45;M4 100MHz</text>
</g>
<!-- hal_stm32&#45;&gt;hw_mcu -->
<g id="edge17" class="edge">
<title>hal_stm32&#45;&gt;hw_mcu</title>
<path fill="none" stroke="#000000" stroke-width="1.2" stroke-dasharray="5,2" d="M890.48,-217.74C901.77,-204.72 915.72,-188.64 927.76,-174.76"/>
<polygon fill="#000000" stroke="#000000" stroke-width="1.2" points="929.57,-176.41 932.31,-169.51 925.87,-173.2 929.57,-176.41"/>
</g>
<!-- hw_uart -->
<g id="node26" class="node">
<title>hw_uart</title>
<path fill="#cfd8dc" stroke="#000000" stroke-width="1.2" d="M1194.2,-167.55C1194.2,-167.55 1059.8,-167.55 1059.8,-167.55 1053.8,-167.55 1047.8,-161.55 1047.8,-155.55 1047.8,-155.55 1047.8,-129.15 1047.8,-129.15 1047.8,-123.15 1053.8,-117.15 1059.8,-117.15 1059.8,-117.15 1194.2,-117.15 1194.2,-117.15 1200.2,-117.15 1206.2,-123.15 1206.2,-129.15 1206.2,-129.15 1206.2,-155.55 1206.2,-155.55 1206.2,-161.55 1200.2,-167.55 1194.2,-167.55"/>
<text xml:space="preserve" text-anchor="middle" x="1127" y="-147.1" font-family="Microsoft YaHei" font-size="10.00">UART</text>
<text xml:space="preserve" text-anchor="middle" x="1127" y="-132.85" font-family="Microsoft YaHei" font-size="10.00">7路串口</text>
</g>
<!-- hal_stm32&#45;&gt;hw_uart -->
<g id="edge18" class="edge">
<title>hal_stm32&#45;&gt;hw_uart</title>
<path fill="none" stroke="#000000" stroke-width="1.2" stroke-dasharray="5,2" d="M928.99,-217.75C937.61,-214.87 946.45,-212.26 955,-210.3 992.42,-201.72 1004.9,-215.35 1041,-202.3 1059.14,-195.74 1077.08,-184.43 1091.84,-173.46"/>
<polygon fill="#000000" stroke="#000000" stroke-width="1.2" points="1093.31,-175.42 1097.38,-169.22 1090.33,-171.53 1093.31,-175.42"/>
</g>
<!-- hw_gpio -->
<g id="node27" class="node">
<title>hw_gpio</title>
<path fill="#cfd8dc" stroke="#000000" stroke-width="1.2" d="M678.2,-167.55C678.2,-167.55 543.8,-167.55 543.8,-167.55 537.8,-167.55 531.8,-161.55 531.8,-155.55 531.8,-155.55 531.8,-129.15 531.8,-129.15 531.8,-123.15 537.8,-117.15 543.8,-117.15 543.8,-117.15 678.2,-117.15 678.2,-117.15 684.2,-117.15 690.2,-123.15 690.2,-129.15 690.2,-129.15 690.2,-155.55 690.2,-155.55 690.2,-161.55 684.2,-167.55 678.2,-167.55"/>
<text xml:space="preserve" text-anchor="middle" x="611" y="-147.1" font-family="Microsoft YaHei" font-size="10.00">GPIO</text>
<text xml:space="preserve" text-anchor="middle" x="611" y="-132.85" font-family="Microsoft YaHei" font-size="10.00">多路输入输出</text>
</g>
<!-- hal_stm32&#45;&gt;hw_gpio -->
<g id="edge19" class="edge">
<title>hal_stm32&#45;&gt;hw_gpio</title>
<path fill="none" stroke="#000000" stroke-width="1.2" stroke-dasharray="5,2" d="M809.01,-217.75C800.39,-214.87 791.55,-212.26 783,-210.3 745.58,-201.72 733.1,-215.35 697,-202.3 678.86,-195.74 660.92,-184.43 646.16,-173.46"/>
<polygon fill="#000000" stroke="#000000" stroke-width="1.2" points="647.67,-171.53 640.62,-169.22 644.69,-175.42 647.67,-171.53"/>
</g>
<!-- hal_fill3 -->
<g id="node22" class="node">
<title>hal_fill3</title>
</g>
<!-- hal_fill4 -->
<g id="node23" class="node">
<title>hal_fill4</title>
</g>
<!-- hw_fill1 -->
<g id="node24" class="node">
<title>hw_fill1</title>
</g>
<!-- per_motor -->
<g id="node31" class="node">
<title>per_motor</title>
<path fill="#dcedc8" stroke="#e69f00" stroke-width="1.2" d="M1194.2,-66.4C1194.2,-66.4 1059.8,-66.4 1059.8,-66.4 1053.8,-66.4 1047.8,-60.4 1047.8,-54.4 1047.8,-54.4 1047.8,-28 1047.8,-28 1047.8,-22 1053.8,-16 1059.8,-16 1059.8,-16 1194.2,-16 1194.2,-16 1200.2,-16 1206.2,-22 1206.2,-28 1206.2,-28 1206.2,-54.4 1206.2,-54.4 1206.2,-60.4 1200.2,-66.4 1194.2,-66.4"/>
<text xml:space="preserve" text-anchor="middle" x="1127" y="-45.95" font-family="Microsoft YaHei" font-size="10.00">无刷电机</text>
<text xml:space="preserve" text-anchor="middle" x="1127" y="-31.7" font-family="Microsoft YaHei" font-size="10.00">A/B双通道</text>
</g>
<!-- hw_uart&#45;&gt;per_motor -->
<g id="edge20" class="edge">
<title>hw_uart&#45;&gt;per_motor</title>
<path fill="none" stroke="#e69f00" stroke-width="1.2" stroke-dasharray="5,2" d="M1127,-116.59C1127,-104.16 1127,-88.94 1127,-75.51"/>
<polygon fill="#e69f00" stroke="#e69f00" stroke-width="1.2" points="1129.45,-75.81 1127,-68.81 1124.55,-75.81 1129.45,-75.81"/>
</g>
<!-- per_lcd -->
<g id="node32" class="node">
<title>per_lcd</title>
<path fill="#dcedc8" stroke="#e69f00" stroke-width="1.2" d="M1366.2,-66.4C1366.2,-66.4 1231.8,-66.4 1231.8,-66.4 1225.8,-66.4 1219.8,-60.4 1219.8,-54.4 1219.8,-54.4 1219.8,-28 1219.8,-28 1219.8,-22 1225.8,-16 1231.8,-16 1231.8,-16 1366.2,-16 1366.2,-16 1372.2,-16 1378.2,-22 1378.2,-28 1378.2,-28 1378.2,-54.4 1378.2,-54.4 1378.2,-60.4 1372.2,-66.4 1366.2,-66.4"/>
<text xml:space="preserve" text-anchor="middle" x="1299" y="-45.95" font-family="Microsoft YaHei" font-size="10.00">LCD显示屏</text>
<text xml:space="preserve" text-anchor="middle" x="1299" y="-31.7" font-family="Microsoft YaHei" font-size="10.00">4.3寸触摸</text>
</g>
<!-- hw_uart&#45;&gt;per_lcd -->
<g id="edge21" class="edge">
<title>hw_uart&#45;&gt;per_lcd</title>
<path fill="none" stroke="#e69f00" stroke-width="1.2" stroke-dasharray="5,2" d="M1183.19,-116.71C1193.26,-111.83 1203.56,-106.55 1213,-101.15 1228.39,-92.36 1244.59,-81.66 1258.73,-71.81"/>
<polygon fill="#e69f00" stroke="#e69f00" stroke-width="1.2" points="1260.12,-73.83 1264.44,-67.8 1257.3,-69.82 1260.12,-73.83"/>
</g>
<!-- per_pedal -->
<g id="node33" class="node">
<title>per_pedal</title>
<path fill="#dcedc8" stroke="#e69f00" stroke-width="1.2" d="M850.2,-66.4C850.2,-66.4 715.8,-66.4 715.8,-66.4 709.8,-66.4 703.8,-60.4 703.8,-54.4 703.8,-54.4 703.8,-28 703.8,-28 703.8,-22 709.8,-16 715.8,-16 715.8,-16 850.2,-16 850.2,-16 856.2,-16 862.2,-22 862.2,-28 862.2,-28 862.2,-54.4 862.2,-54.4 862.2,-60.4 856.2,-66.4 850.2,-66.4"/>
<text xml:space="preserve" text-anchor="middle" x="783" y="-45.95" font-family="Microsoft YaHei" font-size="10.00">脚踏板</text>
<text xml:space="preserve" text-anchor="middle" x="783" y="-31.7" font-family="Microsoft YaHei" font-size="10.00">油门+按键</text>
</g>
<!-- hw_uart&#45;&gt;per_pedal -->
<g id="edge22" class="edge">
<title>hw_uart&#45;&gt;per_pedal</title>
<path fill="none" stroke="#e69f00" stroke-width="1.2" stroke-dasharray="5,2" d="M1068.5,-116.69C1059.43,-113.68 1050.06,-111.01 1041,-109.15 1003.52,-101.46 905.28,-113.32 869,-101.15 850.25,-94.86 831.84,-83.2 816.89,-71.9"/>
<polygon fill="#e69f00" stroke="#e69f00" stroke-width="1.2" points="818.74,-70.23 811.71,-67.87 815.73,-74.1 818.74,-70.23"/>
</g>
<!-- per_hand -->
<g id="node34" class="node">
<title>per_hand</title>
<path fill="#dcedc8" stroke="#e69f00" stroke-width="1.2" d="M1022.2,-66.4C1022.2,-66.4 887.8,-66.4 887.8,-66.4 881.8,-66.4 875.8,-60.4 875.8,-54.4 875.8,-54.4 875.8,-28 875.8,-28 875.8,-22 881.8,-16 887.8,-16 887.8,-16 1022.2,-16 1022.2,-16 1028.2,-16 1034.2,-22 1034.2,-28 1034.2,-28 1034.2,-54.4 1034.2,-54.4 1034.2,-60.4 1028.2,-66.4 1022.2,-66.4"/>
<text xml:space="preserve" text-anchor="middle" x="955" y="-45.95" font-family="Microsoft YaHei" font-size="10.00">手柄</text>
<text xml:space="preserve" text-anchor="middle" x="955" y="-31.7" font-family="Microsoft YaHei" font-size="10.00">RFID识别</text>
</g>
<!-- hw_uart&#45;&gt;per_hand -->
<g id="edge23" class="edge">
<title>hw_uart&#45;&gt;per_hand</title>
<path fill="none" stroke="#e69f00" stroke-width="1.2" stroke-dasharray="5,2" d="M1070.81,-116.71C1060.74,-111.83 1050.44,-106.55 1041,-101.15 1025.61,-92.36 1009.41,-81.66 995.27,-71.81"/>
<polygon fill="#e69f00" stroke="#e69f00" stroke-width="1.2" points="996.7,-69.82 989.56,-67.8 993.88,-73.83 996.7,-69.82"/>
</g>
<!-- per_pump -->
<g id="node35" class="node">
<title>per_pump</title>
<path fill="#dcedc8" stroke="#e69f00" stroke-width="1.2" d="M678.2,-66.4C678.2,-66.4 543.8,-66.4 543.8,-66.4 537.8,-66.4 531.8,-60.4 531.8,-54.4 531.8,-54.4 531.8,-28 531.8,-28 531.8,-22 537.8,-16 543.8,-16 543.8,-16 678.2,-16 678.2,-16 684.2,-16 690.2,-22 690.2,-28 690.2,-28 690.2,-54.4 690.2,-54.4 690.2,-60.4 684.2,-66.4 678.2,-66.4"/>
<text xml:space="preserve" text-anchor="middle" x="611" y="-45.95" font-family="Microsoft YaHei" font-size="10.00">灌注/注水泵</text>
<text xml:space="preserve" text-anchor="middle" x="611" y="-31.7" font-family="Microsoft YaHei" font-size="10.00">流量控制</text>
</g>
<!-- hw_gpio&#45;&gt;per_pump -->
<g id="edge24" class="edge">
<title>hw_gpio&#45;&gt;per_pump</title>
<path fill="none" stroke="#e69f00" stroke-width="1.2" stroke-dasharray="5,2" d="M611,-116.59C611,-104.16 611,-88.94 611,-75.51"/>
<polygon fill="#e69f00" stroke="#e69f00" stroke-width="1.2" points="613.45,-75.81 611,-68.81 608.55,-75.81 613.45,-75.81"/>
</g>
<!-- hw_eeprom -->
<g id="node28" class="node">
<title>hw_eeprom</title>
<path fill="#cfd8dc" stroke="#000000" stroke-width="1.2" d="M850.2,-167.55C850.2,-167.55 715.8,-167.55 715.8,-167.55 709.8,-167.55 703.8,-161.55 703.8,-155.55 703.8,-155.55 703.8,-129.15 703.8,-129.15 703.8,-123.15 709.8,-117.15 715.8,-117.15 715.8,-117.15 850.2,-117.15 850.2,-117.15 856.2,-117.15 862.2,-123.15 862.2,-129.15 862.2,-129.15 862.2,-155.55 862.2,-155.55 862.2,-161.55 856.2,-167.55 850.2,-167.55"/>
<text xml:space="preserve" text-anchor="middle" x="783" y="-147.1" font-family="Microsoft YaHei" font-size="10.00">AT24C02</text>
<text xml:space="preserve" text-anchor="middle" x="783" y="-132.85" font-family="Microsoft YaHei" font-size="10.00">2Kb EEPROM</text>
</g>
<!-- hw_eeprom&#45;&gt;hal_stm32 -->
<g id="edge25" class="edge">
<title>hw_eeprom&#45;&gt;hal_stm32</title>
<path fill="none" stroke="#000000" stroke-width="1.2" stroke-dasharray="5,2" d="M804.5,-168.14C815.79,-181.16 829.75,-197.25 841.79,-211.12"/>
<polygon fill="#000000" stroke="#000000" stroke-width="1.2" points="839.89,-212.68 846.33,-216.36 843.59,-209.47 839.89,-212.68"/>
</g>
<!-- hw_fill2 -->
<g id="node29" class="node">
<title>hw_fill2</title>
</g>
<!-- peri_fill1 -->
<g id="node30" class="node">
<title>peri_fill1</title>
</g>
<!-- peri_fill2 -->
<g id="node36" class="node">
<title>peri_fill2</title>
</g>
</g>
</svg>
